<?xml version="1.0" encoding="UTF-8"?>
<svg id="uuid-d7670c19-ada4-41cc-b1fb-3f136186fcec" data-name="Слой 1" xmlns="http://www.w3.org/2000/svg" viewBox="0 0 483.59 99.31">
  <defs>
    <style>
      .uuid-c56315bb-90a0-4499-9120-6abae84263ce {
        fill: none;
        stroke-width: 5px;
      }

      .uuid-c56315bb-90a0-4499-9120-6abae84263ce, .uuid-f1cbf9f5-7c2c-4a29-9d8f-22af51c26fe9 {
        stroke: #fff;
        stroke-miterlimit: 10;
      }

      .uuid-f1cbf9f5-7c2c-4a29-9d8f-22af51c26fe9 {
        fill: #fff;
      }
    </style>
  </defs>
  <path class="uuid-c56315bb-90a0-4499-9120-6abae84263ce" d="M477.56,2.5l-52.8,52.8c-26.58,26.58-62.63,41.51-100.22,41.51H6.04l52.79-52.79C85.4,17.43,121.45,2.5,159.05,2.5h318.51Z"/>
  <g>
    <path class="uuid-f1cbf9f5-7c2c-4a29-9d8f-22af51c26fe9" d="M104.81,77.26l-13.17,1.53-.68-5.81,1.85-.22-1.47-12.66-1.9.22-.68-5.81,13.22-1.54.68,5.81-1.92.22,1.47,12.66,1.92-.22.68,5.81ZM119.92,75.5l-12.57,1.46-.68-5.81,1.17-.14-6.13-6.29,5.51-6.46-1.97.23-.68-5.81,11.96-1.39.68,5.81-1.89.22-4.42,5.19,7.14,7.33,1.2-.14.68,5.81Z"/>
    <path class="uuid-f1cbf9f5-7c2c-4a29-9d8f-22af51c26fe9" d="M127.42,62.26l-6.96.1c.56-1.75,1.65-3.06,3.26-3.94,1.59-.87,4-1.49,7.25-1.87,1.2-.14,2.28-.23,3.23-.26.96-.03,1.82-.02,2.58.04,1.58.11,2.78.43,3.6.94.82.53,1.41,1.13,1.79,1.81.39.7.67,1.82.85,3.37l.57,4.89,2.17-.25.62,5.33-10.95,1.27-.13-1.15c-1.4,1.15-3.37,1.88-5.91,2.17-2.39.28-4.25-.04-5.58-.94-1.34-.91-2.1-2.07-2.27-3.51-.18-1.58.42-2.97,1.8-4.16,1.37-1.19,3.26-1.92,5.66-2.2,2.19-.25,3.96-.17,5.32.25l-.06-.51c-.12-1.05-.28-1.77-.48-2.17-.21-.42-.62-.76-1.21-1.01-.62-.23-1.31-.31-2.08-.22-1.41.16-2.43.83-3.06,2ZM134.92,69.37l-.36-3.09c-.83-.33-1.68-.44-2.55-.34-.77.09-1.36.37-1.76.84-.4.48-.57,1.06-.49,1.72.08.69.38,1.22.89,1.6.53.39,1.1.54,1.72.47,1.09-.13,1.94-.53,2.55-1.2Z"/>
    <path class="uuid-f1cbf9f5-7c2c-4a29-9d8f-22af51c26fe9" d="M161.99,70.61l-13.41,1.56-.62-5.33,2.18-.25-.73-6.29-2.18.25-.62-5.33,10.96-1.28.25,2.15c1.96-1.89,4.18-2.98,6.64-3.27,2.17-.25,3.87.16,5.1,1.23,1.22,1.07,1.99,2.94,2.3,5.59l.51,4.35,2.01-.23.62,5.33-10.79,1.26-.88-7.53c-.19-1.64-.46-2.71-.8-3.2-.36-.48-.97-.67-1.82-.57-.78.09-1.58.49-2.41,1.18l.62,5.33,2.44-.28.62,5.33Z"/>
    <path class="uuid-f1cbf9f5-7c2c-4a29-9d8f-22af51c26fe9" d="M187.98,67.58l-11,1.28-.62-5.33,2.22-.26-1.59-13.64-2.25.26-.62-5.33,11.03-1.28.98,8.43c1.38-1.1,3.14-1.78,5.27-2.03,2.69-.31,5,.2,6.94,1.53s3.06,3.32,3.37,5.96c.15,1.3.08,2.51-.23,3.62-.3,1.11-.83,2.14-1.58,3.09-1.49,1.92-3.51,3.03-6.05,3.32-2.26.26-4.26,0-6-.77l.13,1.13ZM186.91,59.05c.3,2.55,1.46,3.71,3.48,3.47,1.92-.22,2.73-1.6,2.44-4.14-.14-1.21-.52-2.1-1.13-2.68-.61-.57-1.36-.8-2.26-.69-.96.11-1.65.54-2.08,1.29-.43.77-.58,1.69-.46,2.76Z"/>
    <path class="uuid-f1cbf9f5-7c2c-4a29-9d8f-22af51c26fe9" d="M211.23,52.51l-6.96.1c.56-1.75,1.65-3.06,3.26-3.94,1.59-.87,4-1.49,7.25-1.87,1.2-.14,2.28-.23,3.23-.26s1.82-.02,2.58.04c1.58.11,2.78.43,3.6.94.82.53,1.41,1.13,1.79,1.81.39.7.67,1.82.85,3.37l.57,4.89,2.17-.25.62,5.33-10.95,1.27-.13-1.15c-1.4,1.15-3.37,1.88-5.91,2.17-2.39.28-4.25-.04-5.58-.94-1.34-.91-2.1-2.07-2.27-3.51-.18-1.58.42-2.97,1.8-4.16,1.37-1.19,3.26-1.92,5.65-2.2,2.19-.25,3.96-.17,5.32.25l-.06-.51c-.12-1.05-.28-1.77-.48-2.17-.21-.42-.62-.76-1.21-1.01-.62-.24-1.31-.31-2.08-.22-1.41.16-2.43.83-3.06,2ZM218.73,59.61l-.36-3.09c-.83-.33-1.68-.44-2.55-.34-.77.09-1.36.37-1.76.84-.4.48-.57,1.06-.49,1.72.08.69.38,1.22.89,1.59.53.39,1.1.54,1.72.47,1.09-.13,1.94-.53,2.55-1.2Z"/>
    <path class="uuid-f1cbf9f5-7c2c-4a29-9d8f-22af51c26fe9" d="M245.8,60.85l-13.41,1.56-.62-5.33,2.18-.25-.73-6.29-2.18.25-.62-5.33,10.97-1.28.25,2.15c1.96-1.89,4.18-2.98,6.64-3.27,2.17-.25,3.86.16,5.1,1.23,1.22,1.07,1.99,2.94,2.3,5.59l.51,4.35,2.01-.23.62,5.33-10.79,1.26-.88-7.53c-.19-1.64-.46-2.71-.8-3.2-.36-.48-.97-.67-1.82-.57-.78.09-1.58.49-2.41,1.18l.62,5.33,2.44-.28.62,5.33Z"/>
    <path class="uuid-f1cbf9f5-7c2c-4a29-9d8f-22af51c26fe9" d="M286.35,56.13l-13.64,1.59-.68-5.81,2.1-.24-1.47-12.66-2.79.33.51,4.42-4.56.53-1.19-10.23,24.08-2.8,1.19,10.23-4.56.53-.51-4.42-2.78.32,1.47,12.66,2.15-.25.68,5.81Z"/>
    <path class="uuid-f1cbf9f5-7c2c-4a29-9d8f-22af51c26fe9" d="M290.59,46.97c-.29-2.49.51-4.71,2.41-6.67,1.9-1.96,4.62-3.14,8.19-3.55,3.58-.42,6.6.07,9.04,1.46,2.44,1.39,3.81,3.41,4.12,6.07.3,2.56-.52,4.82-2.47,6.78-1.94,1.96-4.67,3.14-8.19,3.55-3.79.44-6.85-.07-9.17-1.53-2.32-1.45-3.63-3.49-3.93-6.11ZM299.48,45.97c.31,2.7,1.44,3.94,3.37,3.71,2.05-.24,2.91-1.72,2.6-4.44-.14-1.25-.51-2.18-1.09-2.81-.59-.63-1.35-.89-2.29-.78-.92.11-1.62.53-2.1,1.27-.48.74-.64,1.76-.49,3.05Z"/>
    <path class="uuid-f1cbf9f5-7c2c-4a29-9d8f-22af51c26fe9" d="M324.43,51.91l-5.43.63-.62-5.38,5.08-.59c1.46,1.22,2.97,1.74,4.52,1.56,1.56-.18,2.3-.59,2.23-1.23-.04-.33-.24-.56-.59-.69-.37-.15-1.33-.31-2.87-.5-1.25-.19-2.63-.41-4.15-.67-1.31-.21-2.36-.55-3.16-1.01-.82-.46-1.39-.94-1.71-1.43-.34-.49-.56-1.16-.66-2.01-.22-1.87.28-3.33,1.51-4.37,1.21-1.03,2.83-1.66,4.86-1.89,2.1-.24,3.9-.05,5.41.57l-.1-.87,5.36-.62.57,4.92-4.96.58c-1.37-1.03-2.91-1.45-4.61-1.25-1.34.16-1.97.59-1.88,1.3.04.34.26.54.67.59.35.07,1.5.19,3.44.36,2.21.2,3.94.46,5.21.77,1.25.31,2.22.81,2.92,1.48.68.68,1.08,1.56,1.21,2.64.23,1.96-.33,3.48-1.68,4.58-1.34,1.09-3.06,1.75-5.18,2-2.11.25-3.94.07-5.49-.53l.12,1.05Z"/>
    <path class="uuid-f1cbf9f5-7c2c-4a29-9d8f-22af51c26fe9" d="M350.69,48.65l-10.95,1.27-.62-5.33,2.17-.25-1.59-13.64-2.2.26-.62-5.33,10.98-1.28,1.97,16.92,4.89-6.04-3.09.36-.49-4.17,10.83-1.26.53,4.59-1.97.23-2.82,3.48,4.28,3.47,1.38-.16.62,5.33-6.3.73-7.86-6.55.86,7.37Z"/>
    <path class="uuid-f1cbf9f5-7c2c-4a29-9d8f-22af51c26fe9" d="M372.21,33.77l-6.96.1c.56-1.75,1.65-3.06,3.26-3.94,1.59-.87,4-1.49,7.25-1.87,1.2-.14,2.28-.23,3.23-.26.96-.03,1.82-.02,2.58.04,1.58.11,2.78.43,3.6.94.82.53,1.41,1.13,1.79,1.81.39.7.67,1.82.85,3.37l.57,4.89,2.17-.25.62,5.33-10.95,1.27-.13-1.15c-1.4,1.15-3.37,1.88-5.91,2.17-2.39.28-4.25-.04-5.58-.94-1.34-.9-2.1-2.07-2.27-3.51-.18-1.58.41-2.97,1.8-4.16,1.37-1.19,3.26-1.92,5.65-2.2,2.19-.25,3.96-.17,5.32.25l-.06-.51c-.12-1.05-.28-1.77-.48-2.17-.21-.42-.62-.76-1.21-1.01-.62-.23-1.31-.31-2.08-.22-1.41.16-2.43.83-3.06,2ZM379.71,40.88l-.36-3.09c-.83-.33-1.68-.44-2.55-.34-.77.09-1.36.37-1.76.84-.4.48-.57,1.06-.49,1.72.08.69.38,1.22.89,1.6.53.39,1.1.54,1.72.47,1.09-.13,1.94-.53,2.55-1.2Z"/>
  </g>
</svg>